<?xml version="1.0" encoding="UTF-8"?>
<svg width="234px" height="272px" viewBox="0 0 234 272" version="1.1" xmlns="http://www.w3.org/2000/svg" xmlns:xlink="http://www.w3.org/1999/xlink">
    <!-- Generator: Sketch 61.2 (89653) - https://sketch.com -->
    <title>Revisionary Icon</title>
    <desc>Created with Sketch.</desc>
    <g id="Page-1" stroke="none" stroke-width="1" fill="none" fill-rule="evenodd">
        <g id="Desktop" transform="translate(-120.000000, -111.000000)">
            <g id="logo" transform="translate(120.000000, 111.000000)">
                <g id="Revisionary-Icon">
                    <g id="icon">
                        <rect id="Rectangle" stroke="#000000" stroke-width="30" fill="#FFFFFF" x="15" y="15" width="204" height="242" rx="20"></rect>
                        <path d="M98.5742188,207 L98.5742188,150.457031 L118.691406,150.457031 C124.095052,150.457031 128.245443,152.410156 131.142578,156.316406 C134.039714,160.222656 135.488281,165.723958 135.488281,172.820312 L135.488281,172.820312 L135.488281,182.488281 C135.488281,187.371094 135.78125,192.15625 136.367188,196.84375 C136.953125,201.53125 138.385417,204.916667 140.664062,207 L140.664062,207 L169.375,207 L169.375,204.949219 C167.096354,202.93099 165.501302,199.692057 164.589844,195.232422 C163.678385,190.772786 163.222656,186.589844 163.222656,182.683594 L163.222656,182.683594 L163.222656,172.625 C163.222656,164.03125 161.611328,156.869792 158.388672,151.140625 C155.166016,145.411458 149.908854,141.309896 142.617188,138.835938 C148.997396,135.645833 153.847656,131.365234 157.167969,125.994141 C160.488281,120.623047 162.148438,114.226562 162.148438,106.804688 C162.148438,93.6536458 158.160807,83.3834635 150.185547,75.9941406 C142.210286,68.6048177 131.223958,64.9101562 117.226562,64.9101562 L117.226562,64.9101562 L70.8398438,64.9101562 L70.8398438,207 L98.5742188,207 Z M117.128906,128.289062 L98.5742188,128.289062 L98.5742188,87.078125 L117.226562,87.078125 C122.825521,87.078125 127.089844,88.9986979 130.019531,92.8398438 C132.949219,96.6809896 134.414062,101.856771 134.414062,108.367188 C134.414062,114.747396 132.949219,119.66276 130.019531,123.113281 C127.089844,126.563802 122.792969,128.289062 117.128906,128.289062 L117.128906,128.289062 Z" id="R" fill="#000000" fill-rule="nonzero"></path>
                    </g>
                </g>
            </g>
        </g>
    </g>
</svg>