<?xml version="1.0" encoding="UTF-8"?>
<svg width="11px" height="18px" viewBox="0 0 11 18" version="1.1" xmlns="http://www.w3.org/2000/svg" xmlns:xlink="http://www.w3.org/1999/xlink">
    <!-- Generator: Sketch 51.2 (57519) - http://www.bohemiancoding.com/sketch -->
    <title>icon-follower</title>
    <desc>Created with Sketch.</desc>
    <defs></defs>
    <g id="Inspect-Page" stroke="none" stroke-width="1" fill="none" fill-rule="evenodd">
        <g id="Desktop-HD" transform="translate(-553.000000, -385.000000)" fill="#000000" stroke="#000000" stroke-width="0.5">
            <g id="Pins" transform="translate(45.000000, 38.000000)">
                <g id="Pin-2" transform="translate(363.000000, 301.000000)">
                    <g id="Pin-Window" transform="translate(45.000000, 43.000000)">
                        <g id="Options" transform="translate(15.000000, 3.750000)">
                            <g id="Follower-Option" transform="translate(85.000000, 0.000000)">
                                <g id="Follower-Icon">
                                    <g id="User-Icon-Copy">
                                        <path d="M5.50909676,6.72788836 C3.61806571,6.72788836 2.08508215,5.22179925 2.08508215,3.36394418 C2.08508215,1.50608911 3.61806571,0 5.50909676,0 C7.40012781,0 8.93311137,1.50608911 8.93311137,3.36394418 C8.93311137,5.22179925 7.40012781,6.72788836 5.50909676,6.72788836 Z M5.50909676,16.8197209 C4.14691453,16.8197209 1.92457811,17.0371244 0.929586301,16.116875 C-0.0654055116,15.1966256 0.373074845,13.2223029 0.373074845,11.7738046 C0.373074845,8.98702202 2.67255018,6.72788836 5.50909676,6.72788836 C8.34564334,6.72788836 10.6451187,8.98702202 10.6451187,11.7738046 C10.6451187,13.1724927 10.9959605,15.2098563 10.0673742,16.116875 C9.13878788,17.0238937 6.92197873,16.8197209 5.50909676,16.8197209 Z" id="icon-follower"></path>
                                    </g>
                                </g>
                            </g>
                        </g>
                    </g>
                </g>
            </g>
        </g>
    </g>
</svg>