<?xml version="1.0" encoding="UTF-8"?>
<svg width="18px" height="16px" viewBox="0 0 18 16" version="1.1" xmlns="http://www.w3.org/2000/svg" xmlns:xlink="http://www.w3.org/1999/xlink">
    <!-- Generator: Sketch 43.2 (39069) - http://www.bohemiancoding.com/sketch -->
    <title>archive</title>
    <desc>Created with Sketch.</desc>
    <defs></defs>
    <g id="Web-Project" stroke="none" stroke-width="1" fill="none" fill-rule="evenodd">
        <g id="Projects-Page" transform="translate(-573.000000, -252.000000)" fill="#000000">
            <g id="Content" transform="translate(150.000000, 154.000000)">
                <g id="Title" transform="translate(404.000000, 0.000000)">
                    <g id="Projects-Menu-Open" transform="translate(4.000000, 83.000000)">
                        <g id="Archived">
                            <path d="M31.6749281,15 L15.5750719,15 C15.2574563,15 15,15.2745031 15,15.6132907 L15,18.0666834 L32.25,18.0666834 L32.25,15.6132907 C32.25,15.2745031 31.9925437,15 31.6749281,15 Z M15.9583453,28.9915828 C15.9583453,29.729775 16.5620953,30.3334172 17.3000719,30.3334172 L29.9499281,30.3334172 C30.6881203,30.3334172 31.2916547,29.729775 31.2916547,28.9915828 L31.2916547,18.8332734 L15.9583453,18.8332734 L15.9583453,28.9915828 Z M20.7500719,23.8166475 L26.5000359,23.8166475 L26.5000359,20.7499641 L20.7500719,20.7499641 L20.7500719,23.8166475 Z" id="archive"></path>
                        </g>
                    </g>
                </g>
            </g>
        </g>
    </g>
</svg>