<?xml version="1.0" encoding="UTF-8"?>
<svg width="14px" height="15px" viewBox="0 0 14 15" version="1.1" xmlns="http://www.w3.org/2000/svg" xmlns:xlink="http://www.w3.org/1999/xlink">
    <!-- Generator: Sketch 43.2 (39069) - http://www.bohemiancoding.com/sketch -->
    <title>Share</title>
    <desc>Created with Sketch.</desc>
    <defs></defs>
    <g id="Web-Project" stroke="none" stroke-width="1" fill="none" fill-rule="evenodd">
        <g id="Projects-Page" transform="translate(-159.000000, -553.000000)" fill="#FFFFFF">
            <g id="Content" transform="translate(150.000000, 154.000000)">
                <g id="Projects" transform="translate(0.000000, 172.000000)">
                    <g id="Project">
                        <g id="Hover*">
                            <g id="Actions" transform="translate(9.000000, 227.000000)">
                                <path d="M11.3065327,5.27638191 C10.7035176,5.27638191 10.1758794,5.50251256 9.79899497,5.87939698 L4.44723618,2.78894472 C4.52261307,2.63819095 4.52261307,2.4120603 4.52261307,2.26130653 C4.52261307,0.979899497 3.54271357,0 2.26130653,0 C0.979899497,0 0,0.979899497 0,2.26130653 C0,3.54271357 0.979899497,4.52261307 2.26130653,4.52261307 C2.86432161,4.52261307 3.3919598,4.29648241 3.76884422,3.91959799 L9.12060302,7.01005025 C9.04522613,7.16080402 9.04522613,7.38693467 9.04522613,7.53768844 C9.04522613,7.68844221 9.04522613,7.91457286 9.12060302,8.06532663 L3.76884422,11.2311558 C3.3919598,10.8542714 2.86432161,10.6281407 2.26130653,10.6281407 C1.05527638,10.6281407 0.0753768844,11.6080402 0.0753768844,12.8140704 C0.0753768844,14.0201005 1.05527638,15 2.26130653,15 C3.46733668,15 4.44723618,14.0201005 4.44723618,12.8140704 C4.44723618,12.6633166 4.44723618,12.5125628 4.3718593,12.2864322 L9.72361809,9.12060302 C10.1005025,9.49748744 10.6281407,9.72361809 11.2311558,9.72361809 C12.5125628,9.72361809 13.4924623,8.74371859 13.4924623,7.46231156 C13.4924623,6.18090452 12.5879397,5.27638191 11.3065327,5.27638191 Z" id="Share"></path>
                            </g>
                        </g>
                    </g>
                </g>
            </g>
        </g>
    </g>
</svg>