<?xml version="1.0" encoding="UTF-8"?>
<svg width="9px" height="6px" viewBox="0 0 9 6" version="1.1" xmlns="http://www.w3.org/2000/svg" xmlns:xlink="http://www.w3.org/1999/xlink">
    <!-- Generator: Sketch 43.2 (39069) - http://www.bohemiancoding.com/sketch -->
    <title>Shared with Me</title>
    <desc>Created with Sketch.</desc>
    <defs></defs>
    <g id="Web-Project" stroke="none" stroke-width="1" fill="none" fill-rule="evenodd">
        <g id="Projects-Page" transform="translate(-150.000000, -584.000000)" fill="#000000">
            <g id="Content" transform="translate(150.000000, 154.000000)">
                <g id="Projects" transform="translate(0.000000, 172.000000)">
                    <g id="Project">
                        <g id="Info" transform="translate(0.000000, 250.000000)">
                            <path d="M6.13636364,10.431677 C6.83181818,10.431677 7.36363636,9.90481366 7.36363636,9.21583851 C7.36363636,8.52686335 6.83181818,8 6.13636364,8 C5.44090909,8 4.90909091,8.52686335 4.90909091,9.21583851 C4.90909091,9.90481366 5.44090909,10.431677 6.13636364,10.431677 Z M2.86363636,10.431677 C3.55909091,10.431677 4.09090909,9.90481366 4.09090909,9.21583851 C4.09090909,8.52686335 3.55909091,8 2.86363636,8 C2.16818182,8 1.63636364,8.52686335 1.63636364,9.21583851 C1.63636364,9.90481366 2.16818182,10.431677 2.86363636,10.431677 Z M2.86363636,11.242236 C1.92272727,11.242236 0,11.7285714 0,12.6607143 L0,13.673913 L5.72727273,13.673913 L5.72727273,12.6607143 C5.72727273,11.7285714 3.80454545,11.242236 2.86363636,11.242236 Z M6.13636364,11.242236 C6.01363636,11.242236 5.89090909,11.242236 5.72727273,11.282764 C6.21818182,11.6069876 6.54545455,12.093323 6.54545455,12.6607143 L6.54545455,13.673913 L9,13.673913 L9,12.6607143 C9,11.7285714 7.07727273,11.242236 6.13636364,11.242236 Z" id="Shared-with-Me"></path>
                        </g>
                    </g>
                </g>
            </g>
        </g>
    </g>
</svg>